<mxfile host="app.diagrams.net" modified="2020-10-28T22:09:02.891Z" agent="5.0 (Windows NT 10.0; Win64; x64) AppleWebKit/537.36 (KHTML, like Gecko) Chrome/86.0.4240.111 Safari/537.36" etag="thh7ZoH6q994c4sqBUOC" version="13.8.5" type="github">
  <diagram id="SLp7Ih21Ny8QmJdHLlk6" name="Page-1">
    <mxGraphModel dx="782" dy="437" grid="1" gridSize="10" guides="1" tooltips="1" connect="1" arrows="1" fold="1" page="1" pageScale="1" pageWidth="827" pageHeight="1169" math="0" shadow="0">
      <root>
        <mxCell id="0" />
        <mxCell id="1" parent="0" />
        <mxCell id="GyHNu_jlYCtRFL4EkKrP-1" value="employees" style="whiteSpace=wrap;html=1;align=center;" parent="1" vertex="1">
          <mxGeometry x="330" y="190" width="100" height="40" as="geometry" />
        </mxCell>
        <mxCell id="GyHNu_jlYCtRFL4EkKrP-2" value="department" style="whiteSpace=wrap;html=1;align=center;" parent="1" vertex="1">
          <mxGeometry x="475" y="280" width="100" height="40" as="geometry" />
        </mxCell>
        <mxCell id="GyHNu_jlYCtRFL4EkKrP-5" value="&lt;span style=&quot;border-bottom: 1px dotted&quot;&gt;employee_id&lt;/span&gt;" style="ellipse;whiteSpace=wrap;html=1;align=center;" parent="1" vertex="1">
          <mxGeometry x="170" y="10" width="100" height="40" as="geometry" />
        </mxCell>
        <mxCell id="GyHNu_jlYCtRFL4EkKrP-6" value="&lt;span style=&quot;border-bottom: 1px dotted&quot;&gt;name&lt;/span&gt;" style="ellipse;whiteSpace=wrap;html=1;align=center;" parent="1" vertex="1">
          <mxGeometry x="140" y="55" width="70" height="40" as="geometry" />
        </mxCell>
        <mxCell id="GyHNu_jlYCtRFL4EkKrP-7" value="full_name" style="ellipse;whiteSpace=wrap;html=1;align=center;" parent="1" vertex="1">
          <mxGeometry x="30" y="20" width="80" height="30" as="geometry" />
        </mxCell>
        <mxCell id="GyHNu_jlYCtRFL4EkKrP-8" value="first_name" style="ellipse;whiteSpace=wrap;html=1;align=center;" parent="1" vertex="1">
          <mxGeometry x="20" y="60" width="80" height="30" as="geometry" />
        </mxCell>
        <mxCell id="GyHNu_jlYCtRFL4EkKrP-9" value="last_name" style="ellipse;whiteSpace=wrap;html=1;align=center;" parent="1" vertex="1">
          <mxGeometry x="30" y="100" width="80" height="30" as="geometry" />
        </mxCell>
        <mxCell id="GyHNu_jlYCtRFL4EkKrP-10" value="" style="endArrow=none;html=1;rounded=0;exitX=1;exitY=0.5;exitDx=0;exitDy=0;entryX=0;entryY=0.5;entryDx=0;entryDy=0;" parent="1" source="GyHNu_jlYCtRFL4EkKrP-7" target="GyHNu_jlYCtRFL4EkKrP-6" edge="1">
          <mxGeometry relative="1" as="geometry">
            <mxPoint x="320" y="230" as="sourcePoint" />
            <mxPoint x="480" y="230" as="targetPoint" />
          </mxGeometry>
        </mxCell>
        <mxCell id="GyHNu_jlYCtRFL4EkKrP-11" value="" style="endArrow=none;html=1;rounded=0;exitX=1;exitY=0.5;exitDx=0;exitDy=0;entryX=0;entryY=0.5;entryDx=0;entryDy=0;" parent="1" source="GyHNu_jlYCtRFL4EkKrP-8" target="GyHNu_jlYCtRFL4EkKrP-6" edge="1">
          <mxGeometry relative="1" as="geometry">
            <mxPoint x="320" y="230" as="sourcePoint" />
            <mxPoint x="480" y="230" as="targetPoint" />
          </mxGeometry>
        </mxCell>
        <mxCell id="GyHNu_jlYCtRFL4EkKrP-12" value="" style="endArrow=none;html=1;rounded=0;exitX=1;exitY=0.5;exitDx=0;exitDy=0;entryX=0;entryY=0.5;entryDx=0;entryDy=0;" parent="1" source="GyHNu_jlYCtRFL4EkKrP-9" target="GyHNu_jlYCtRFL4EkKrP-6" edge="1">
          <mxGeometry relative="1" as="geometry">
            <mxPoint x="320" y="230" as="sourcePoint" />
            <mxPoint x="480" y="230" as="targetPoint" />
          </mxGeometry>
        </mxCell>
        <mxCell id="GyHNu_jlYCtRFL4EkKrP-13" value="" style="endArrow=none;html=1;rounded=0;exitX=1;exitY=0.5;exitDx=0;exitDy=0;entryX=0;entryY=0.5;entryDx=0;entryDy=0;" parent="1" source="GyHNu_jlYCtRFL4EkKrP-5" target="GyHNu_jlYCtRFL4EkKrP-1" edge="1">
          <mxGeometry relative="1" as="geometry">
            <mxPoint x="320" y="230" as="sourcePoint" />
            <mxPoint x="480" y="230" as="targetPoint" />
          </mxGeometry>
        </mxCell>
        <mxCell id="GyHNu_jlYCtRFL4EkKrP-14" value="" style="endArrow=none;html=1;rounded=0;exitX=1;exitY=0.5;exitDx=0;exitDy=0;entryX=0;entryY=0.5;entryDx=0;entryDy=0;" parent="1" source="GyHNu_jlYCtRFL4EkKrP-6" target="GyHNu_jlYCtRFL4EkKrP-1" edge="1">
          <mxGeometry relative="1" as="geometry">
            <mxPoint x="320" y="230" as="sourcePoint" />
            <mxPoint x="480" y="230" as="targetPoint" />
          </mxGeometry>
        </mxCell>
        <mxCell id="GyHNu_jlYCtRFL4EkKrP-15" value="gender" style="ellipse;whiteSpace=wrap;html=1;align=center;" parent="1" vertex="1">
          <mxGeometry x="80" y="140" width="75" height="40" as="geometry" />
        </mxCell>
        <mxCell id="GyHNu_jlYCtRFL4EkKrP-16" value="" style="endArrow=none;html=1;rounded=0;exitX=1;exitY=0.5;exitDx=0;exitDy=0;entryX=0;entryY=0.5;entryDx=0;entryDy=0;" parent="1" source="GyHNu_jlYCtRFL4EkKrP-15" target="GyHNu_jlYCtRFL4EkKrP-1" edge="1">
          <mxGeometry relative="1" as="geometry">
            <mxPoint x="320" y="230" as="sourcePoint" />
            <mxPoint x="480" y="230" as="targetPoint" />
          </mxGeometry>
        </mxCell>
        <mxCell id="GyHNu_jlYCtRFL4EkKrP-17" value="&lt;span style=&quot;border-bottom: 1px dotted&quot;&gt;date_birth&lt;/span&gt;" style="ellipse;whiteSpace=wrap;html=1;align=center;" parent="1" vertex="1">
          <mxGeometry x="120" y="100" width="75" height="40" as="geometry" />
        </mxCell>
        <mxCell id="GyHNu_jlYCtRFL4EkKrP-18" value="" style="endArrow=none;html=1;rounded=0;exitX=1;exitY=0.5;exitDx=0;exitDy=0;entryX=0;entryY=0.5;entryDx=0;entryDy=0;" parent="1" source="GyHNu_jlYCtRFL4EkKrP-17" target="GyHNu_jlYCtRFL4EkKrP-1" edge="1">
          <mxGeometry relative="1" as="geometry">
            <mxPoint x="320" y="230" as="sourcePoint" />
            <mxPoint x="480" y="230" as="targetPoint" />
          </mxGeometry>
        </mxCell>
        <mxCell id="GyHNu_jlYCtRFL4EkKrP-19" value="&lt;span style=&quot;border-bottom: 1px dotted&quot;&gt;start_date&lt;/span&gt;" style="ellipse;whiteSpace=wrap;html=1;align=center;" parent="1" vertex="1">
          <mxGeometry x="95" y="284" width="85" height="40" as="geometry" />
        </mxCell>
        <mxCell id="GyHNu_jlYCtRFL4EkKrP-20" value="&lt;span style=&quot;border-bottom: 1px dotted&quot;&gt;end_date&lt;/span&gt;" style="ellipse;whiteSpace=wrap;html=1;align=center;" parent="1" vertex="1">
          <mxGeometry x="130" y="330" width="80" height="40" as="geometry" />
        </mxCell>
        <mxCell id="GyHNu_jlYCtRFL4EkKrP-21" value="&lt;span style=&quot;border-bottom: 1px dotted&quot;&gt;status&lt;/span&gt;" style="ellipse;whiteSpace=wrap;html=1;align=center;" parent="1" vertex="1">
          <mxGeometry x="160" y="380" width="80" height="30" as="geometry" />
        </mxCell>
        <mxCell id="GyHNu_jlYCtRFL4EkKrP-22" value="" style="endArrow=none;html=1;rounded=0;exitX=1;exitY=0.5;exitDx=0;exitDy=0;entryX=0;entryY=0.5;entryDx=0;entryDy=0;" parent="1" source="GyHNu_jlYCtRFL4EkKrP-19" target="GyHNu_jlYCtRFL4EkKrP-1" edge="1">
          <mxGeometry relative="1" as="geometry">
            <mxPoint x="320" y="230" as="sourcePoint" />
            <mxPoint x="480" y="230" as="targetPoint" />
          </mxGeometry>
        </mxCell>
        <mxCell id="GyHNu_jlYCtRFL4EkKrP-23" value="" style="endArrow=none;html=1;rounded=0;exitX=1;exitY=0.5;exitDx=0;exitDy=0;entryX=0;entryY=0.5;entryDx=0;entryDy=0;" parent="1" source="GyHNu_jlYCtRFL4EkKrP-20" target="GyHNu_jlYCtRFL4EkKrP-1" edge="1">
          <mxGeometry relative="1" as="geometry">
            <mxPoint x="320" y="230" as="sourcePoint" />
            <mxPoint x="480" y="230" as="targetPoint" />
          </mxGeometry>
        </mxCell>
        <mxCell id="GyHNu_jlYCtRFL4EkKrP-24" value="" style="endArrow=none;html=1;rounded=0;exitX=1;exitY=0.5;exitDx=0;exitDy=0;entryX=0;entryY=0.5;entryDx=0;entryDy=0;" parent="1" source="GyHNu_jlYCtRFL4EkKrP-21" target="GyHNu_jlYCtRFL4EkKrP-1" edge="1">
          <mxGeometry relative="1" as="geometry">
            <mxPoint x="320" y="230" as="sourcePoint" />
            <mxPoint x="480" y="230" as="targetPoint" />
          </mxGeometry>
        </mxCell>
        <mxCell id="GyHNu_jlYCtRFL4EkKrP-25" value="job_title" style="ellipse;whiteSpace=wrap;html=1;align=center;" parent="1" vertex="1">
          <mxGeometry x="80" y="190" width="70" height="40" as="geometry" />
        </mxCell>
        <mxCell id="GyHNu_jlYCtRFL4EkKrP-26" value="" style="endArrow=none;html=1;rounded=0;exitX=1;exitY=0.5;exitDx=0;exitDy=0;entryX=0;entryY=0.5;entryDx=0;entryDy=0;" parent="1" source="GyHNu_jlYCtRFL4EkKrP-25" target="GyHNu_jlYCtRFL4EkKrP-1" edge="1">
          <mxGeometry relative="1" as="geometry">
            <mxPoint x="230" y="230" as="sourcePoint" />
            <mxPoint x="480" y="230" as="targetPoint" />
          </mxGeometry>
        </mxCell>
        <mxCell id="GyHNu_jlYCtRFL4EkKrP-27" value="&lt;span style=&quot;border-bottom: 1px dotted&quot;&gt;id&lt;/span&gt;" style="ellipse;whiteSpace=wrap;html=1;align=center;" parent="1" vertex="1">
          <mxGeometry x="640" y="220" width="100" height="40" as="geometry" />
        </mxCell>
        <mxCell id="GyHNu_jlYCtRFL4EkKrP-28" value="&lt;span style=&quot;border-bottom: 1px dotted&quot;&gt;name&lt;/span&gt;" style="ellipse;whiteSpace=wrap;html=1;align=center;" parent="1" vertex="1">
          <mxGeometry x="640" y="280" width="100" height="40" as="geometry" />
        </mxCell>
        <mxCell id="GyHNu_jlYCtRFL4EkKrP-29" value="" style="endArrow=none;html=1;rounded=0;entryX=1;entryY=0.5;entryDx=0;entryDy=0;exitX=0;exitY=0.5;exitDx=0;exitDy=0;" parent="1" source="GyHNu_jlYCtRFL4EkKrP-27" target="GyHNu_jlYCtRFL4EkKrP-2" edge="1">
          <mxGeometry relative="1" as="geometry">
            <mxPoint x="430" y="60" as="sourcePoint" />
            <mxPoint x="480" y="110" as="targetPoint" />
          </mxGeometry>
        </mxCell>
        <mxCell id="GyHNu_jlYCtRFL4EkKrP-30" value="" style="endArrow=none;html=1;rounded=0;exitX=0;exitY=0.5;exitDx=0;exitDy=0;entryX=1;entryY=0.5;entryDx=0;entryDy=0;" parent="1" source="GyHNu_jlYCtRFL4EkKrP-28" target="GyHNu_jlYCtRFL4EkKrP-2" edge="1">
          <mxGeometry relative="1" as="geometry">
            <mxPoint x="320" y="110" as="sourcePoint" />
            <mxPoint x="480" y="110" as="targetPoint" />
          </mxGeometry>
        </mxCell>
        <mxCell id="GyHNu_jlYCtRFL4EkKrP-32" value="salary" style="ellipse;whiteSpace=wrap;html=1;align=center;" parent="1" vertex="1">
          <mxGeometry x="80" y="240" width="80" height="40" as="geometry" />
        </mxCell>
        <mxCell id="GyHNu_jlYCtRFL4EkKrP-33" value="" style="endArrow=none;html=1;rounded=0;exitX=1;exitY=0.5;exitDx=0;exitDy=0;entryX=0;entryY=0.5;entryDx=0;entryDy=0;" parent="1" source="GyHNu_jlYCtRFL4EkKrP-32" target="GyHNu_jlYCtRFL4EkKrP-1" edge="1">
          <mxGeometry relative="1" as="geometry">
            <mxPoint x="320" y="210" as="sourcePoint" />
            <mxPoint x="480" y="210" as="targetPoint" />
          </mxGeometry>
        </mxCell>
        <mxCell id="GyHNu_jlYCtRFL4EkKrP-35" value="works_for" style="shape=rhombus;perimeter=rhombusPerimeter;whiteSpace=wrap;html=1;align=center;" parent="1" vertex="1">
          <mxGeometry x="490" y="110" width="70" height="45" as="geometry" />
        </mxCell>
        <mxCell id="GyHNu_jlYCtRFL4EkKrP-40" value="&lt;span style=&quot;border-bottom: 1px dotted&quot;&gt;manager&lt;/span&gt;" style="ellipse;whiteSpace=wrap;html=1;align=center;" parent="1" vertex="1">
          <mxGeometry x="630" y="340" width="100" height="40" as="geometry" />
        </mxCell>
        <mxCell id="GyHNu_jlYCtRFL4EkKrP-41" value="" style="endArrow=none;html=1;rounded=0;entryX=0;entryY=0.5;entryDx=0;entryDy=0;exitX=1;exitY=0.5;exitDx=0;exitDy=0;" parent="1" source="GyHNu_jlYCtRFL4EkKrP-2" target="GyHNu_jlYCtRFL4EkKrP-40" edge="1">
          <mxGeometry relative="1" as="geometry">
            <mxPoint x="340" y="310" as="sourcePoint" />
            <mxPoint x="500" y="310" as="targetPoint" />
          </mxGeometry>
        </mxCell>
        <mxCell id="0HEMyC9qYWvPxuRM62-B-1" style="edgeStyle=orthogonalEdgeStyle;rounded=0;orthogonalLoop=1;jettySize=auto;html=1;exitX=0.5;exitY=1;exitDx=0;exitDy=0;" edge="1" parent="1" source="GyHNu_jlYCtRFL4EkKrP-8" target="GyHNu_jlYCtRFL4EkKrP-8">
          <mxGeometry relative="1" as="geometry" />
        </mxCell>
        <mxCell id="0HEMyC9qYWvPxuRM62-B-4" value="Manages" style="shape=rhombus;perimeter=rhombusPerimeter;whiteSpace=wrap;html=1;align=center;" vertex="1" parent="1">
          <mxGeometry x="345" y="277.5" width="70" height="45" as="geometry" />
        </mxCell>
        <mxCell id="0HEMyC9qYWvPxuRM62-B-5" value="" style="shape=link;html=1;rounded=0;entryX=0.5;entryY=0;entryDx=0;entryDy=0;exitX=0.5;exitY=1;exitDx=0;exitDy=0;" edge="1" parent="1" source="GyHNu_jlYCtRFL4EkKrP-35" target="GyHNu_jlYCtRFL4EkKrP-2">
          <mxGeometry relative="1" as="geometry">
            <mxPoint x="300" y="230" as="sourcePoint" />
            <mxPoint x="460" y="230" as="targetPoint" />
          </mxGeometry>
        </mxCell>
        <mxCell id="0HEMyC9qYWvPxuRM62-B-6" value="M" style="resizable=0;html=1;align=left;verticalAlign=bottom;" connectable="0" vertex="1" parent="0HEMyC9qYWvPxuRM62-B-5">
          <mxGeometry x="-1" relative="1" as="geometry">
            <mxPoint x="5" y="15" as="offset" />
          </mxGeometry>
        </mxCell>
        <mxCell id="0HEMyC9qYWvPxuRM62-B-8" value="" style="shape=link;html=1;rounded=0;entryX=0;entryY=0.5;entryDx=0;entryDy=0;exitX=0.5;exitY=0;exitDx=0;exitDy=0;" edge="1" parent="1" source="GyHNu_jlYCtRFL4EkKrP-1" target="GyHNu_jlYCtRFL4EkKrP-35">
          <mxGeometry relative="1" as="geometry">
            <mxPoint x="300" y="230" as="sourcePoint" />
            <mxPoint x="460" y="230" as="targetPoint" />
            <Array as="points">
              <mxPoint x="380" y="133" />
            </Array>
          </mxGeometry>
        </mxCell>
        <mxCell id="0HEMyC9qYWvPxuRM62-B-9" value="N" style="resizable=0;html=1;align=right;verticalAlign=bottom;" connectable="0" vertex="1" parent="0HEMyC9qYWvPxuRM62-B-8">
          <mxGeometry x="1" relative="1" as="geometry" />
        </mxCell>
        <mxCell id="0HEMyC9qYWvPxuRM62-B-11" value="" style="endArrow=none;html=1;rounded=0;entryX=0.5;entryY=0;entryDx=0;entryDy=0;exitX=0.5;exitY=1;exitDx=0;exitDy=0;" edge="1" parent="1" source="GyHNu_jlYCtRFL4EkKrP-1" target="0HEMyC9qYWvPxuRM62-B-4">
          <mxGeometry relative="1" as="geometry">
            <mxPoint x="300" y="230" as="sourcePoint" />
            <mxPoint x="460" y="230" as="targetPoint" />
          </mxGeometry>
        </mxCell>
        <mxCell id="0HEMyC9qYWvPxuRM62-B-12" value="N" style="resizable=0;html=1;align=right;verticalAlign=bottom;" connectable="0" vertex="1" parent="0HEMyC9qYWvPxuRM62-B-11">
          <mxGeometry x="1" relative="1" as="geometry">
            <mxPoint x="-3" as="offset" />
          </mxGeometry>
        </mxCell>
        <mxCell id="0HEMyC9qYWvPxuRM62-B-13" value="" style="shape=link;html=1;rounded=0;entryX=0;entryY=0.5;entryDx=0;entryDy=0;exitX=1;exitY=0.5;exitDx=0;exitDy=0;" edge="1" parent="1" source="0HEMyC9qYWvPxuRM62-B-4" target="GyHNu_jlYCtRFL4EkKrP-2">
          <mxGeometry relative="1" as="geometry">
            <mxPoint x="300" y="230" as="sourcePoint" />
            <mxPoint x="460" y="230" as="targetPoint" />
          </mxGeometry>
        </mxCell>
        <mxCell id="0HEMyC9qYWvPxuRM62-B-14" value="M" style="resizable=0;html=1;align=left;verticalAlign=bottom;" connectable="0" vertex="1" parent="0HEMyC9qYWvPxuRM62-B-13">
          <mxGeometry x="-1" relative="1" as="geometry" />
        </mxCell>
        <mxCell id="0HEMyC9qYWvPxuRM62-B-16" value="&lt;span style=&quot;border-bottom: 1px dotted&quot;&gt;date&lt;/span&gt;" style="ellipse;whiteSpace=wrap;html=1;align=center;" vertex="1" parent="1">
          <mxGeometry x="620" y="112.5" width="90" height="40" as="geometry" />
        </mxCell>
        <mxCell id="0HEMyC9qYWvPxuRM62-B-17" value="" style="endArrow=none;html=1;rounded=0;entryX=0;entryY=0.5;entryDx=0;entryDy=0;exitX=1;exitY=0.5;exitDx=0;exitDy=0;" edge="1" parent="1" source="GyHNu_jlYCtRFL4EkKrP-35" target="0HEMyC9qYWvPxuRM62-B-16">
          <mxGeometry relative="1" as="geometry">
            <mxPoint x="300" y="230" as="sourcePoint" />
            <mxPoint x="460" y="230" as="targetPoint" />
          </mxGeometry>
        </mxCell>
        <mxCell id="0HEMyC9qYWvPxuRM62-B-18" value="N" style="resizable=0;html=1;align=right;verticalAlign=bottom;" connectable="0" vertex="1" parent="0HEMyC9qYWvPxuRM62-B-17">
          <mxGeometry x="1" relative="1" as="geometry" />
        </mxCell>
        <mxCell id="0HEMyC9qYWvPxuRM62-B-19" value="&lt;span style=&quot;border-bottom: 1px dotted&quot;&gt;date&lt;/span&gt;" style="ellipse;whiteSpace=wrap;html=1;align=center;" vertex="1" parent="1">
          <mxGeometry x="335" y="380" width="90" height="40" as="geometry" />
        </mxCell>
        <mxCell id="0HEMyC9qYWvPxuRM62-B-20" value="" style="endArrow=none;html=1;rounded=0;entryX=0.5;entryY=0;entryDx=0;entryDy=0;exitX=0.5;exitY=1;exitDx=0;exitDy=0;" edge="1" parent="1" source="0HEMyC9qYWvPxuRM62-B-4" target="0HEMyC9qYWvPxuRM62-B-19">
          <mxGeometry relative="1" as="geometry">
            <mxPoint x="570" y="142.5" as="sourcePoint" />
            <mxPoint x="630" y="142.5" as="targetPoint" />
          </mxGeometry>
        </mxCell>
        <mxCell id="0HEMyC9qYWvPxuRM62-B-21" value="N" style="resizable=0;html=1;align=right;verticalAlign=bottom;" connectable="0" vertex="1" parent="0HEMyC9qYWvPxuRM62-B-20">
          <mxGeometry x="1" relative="1" as="geometry" />
        </mxCell>
      </root>
    </mxGraphModel>
  </diagram>
</mxfile>
